<?xml version="1.0" encoding="utf-8"?>
<svg version="1.0" width="330.000000pt" height="330.000000pt" viewBox="0 0 330.000000 330.000000" preserveAspectRatio="xMidYMid meet" xmlns="http://www.w3.org/2000/svg">
  <g transform="translate(0.000000,330.000000) scale(0.100000,-0.100000)" fill="#000000" stroke="none">
    <path d="M974 2486 c-133 -42 -201 -193 -141 -315 15 -32 94 -118 255 -277 127 -128 232 -237 232 -243 0 -6 -106 -115 -235 -242 -267 -264 -279 -282 -273 -388 4 -79 33 -131 96 -175 60 -41 120 -51 189 -32 56 16 65 23 298 261 133 135 248 245 256 245 8 0 119 -107 247 -239 139 -143 246 -246 269 -257 52 -25 136 -23 189 4 82 42 134 126 134 217 0 84 -32 125 -283 371 -131 127 -237 235 -237 241 0 5 28 36 63 68 173 161 418 411 433 443 25 51 23 146 -4 198 -50 98 -152 148 -253 124 -60 -15 -97 -47 -379 -333 -96 -97 -177 -177 -180 -177 -3 0 -116 110 -250 244 -229 228 -249 245 -299 260 -64 19 -73 19 -127 2z" style="fill: rgb(255, 145, 77); stroke: rgb(0, 0, 0); paint-order: fill; stroke-width: 10px;"/>
  </g>
</svg>